<?xml version="1.0" encoding="utf-8"?>
<!-- Generator: Adobe Illustrator 24.0.1, SVG Export Plug-In . SVG Version: 6.00 Build 0)  -->
<svg version="1.1" id="Layer_1" xmlns="http://www.w3.org/2000/svg" xmlns:xlink="http://www.w3.org/1999/xlink" x="0px" y="0px"
	 viewBox="0 0 2500 2496" style="enable-background:new 0 0 2500 2496;" xml:space="preserve">
<style type="text/css">
	.st0{fill:#FFFFFF;}
	.st1{fill:#F7A800;}
	.st2{fill:#67B2E8;}
	.st3{fill:#00C4B3;}
</style>
<title>NEM</title>
<desc>Created using Figma</desc>
<g id="NEM">
	<g id="Group">
		<g id="Vector" transform="translate(114 -188.972)">
			<path id="path0_fill" class="st0" d="M1136.5,2631.9l-12.4-6.2C641,2342.5,275.3,1875.9,126.8,1318.2
				c-23.8-87.6-41.3-177.5-53.7-268.6C61.7,959,55.5,866.9,54.3,775.1c0-15.6-2-13.4,12.4-20.8c181.7-103.2,373.8-178.7,577.3-226
				c75.5-17.6,150.8-30.9,227.2-40.3c105.2-12.4,210.7-17.6,317.1-15.6c59.9,1,118.8,5.2,177.5,11.4
				c296.3,31.9,574.3,120.8,834.5,266.4c4.2,2,7.2,4.2,11.4,6.2c4.2,2,6.2,5.2,6.2,10.4v15.6c-1,53.7-3.2,106.4-7.2,160.2
				c-6.2,76.5-16.6,151.7-30.9,227.2c-30.9,162.1-79.5,318.1-146.5,467.9c-106.4,238.6-252,451.3-435.9,637.2
				c-132.2,134.2-280,250-443.1,345.8C1147.9,2624.7,1142.7,2627.7,1136.5,2631.9L1136.5,2631.9z"/>
		</g>
		<g id="Vector_1_" transform="translate(115.453 -187.596)">
			<path id="path1_fill" class="st1" d="M153,825.4C285.2,748.9,423.5,689,569.1,645.7c198.3-58.9,399.5-86.6,606.2-82.7
				c96,2,256,17.6,282.9,28c1,2-1,3.2-3.2,3.2c-9.2,4.2-19.6,7.2-29,11.4c-170.3,71.3-291.1,221.1-326.3,402.8
				c-5.2,30-8.2,59.9-9.2,89.9c-1,45.5-5.2,90.8-18.6,135.2c-45.5,160.2-176.5,284.9-338.6,322.3
				c-212.9,48.3-427.8-56.9-520.6-254.2c-5.2-11.4-9.2-22.8-11.4-34.2c-15.6-67.1-26.7-134.2-35.2-202.5
				c-9.2-75.3-14.4-150.8-14.4-226C153,833.6,153,830.6,153,825.4L153,825.4z"/>
		</g>
		<g id="Vector_2_" transform="translate(130.673 -186.319)">
			<path id="path2_fill" class="st2" d="M1657.7,2062c2-19.6,4.2-37.1,5.2-55.7c5.2-102.2-16.6-199.3-65.1-289.1
				c-46.5-85.7-111.6-154-195.1-205.5c-7.2-5.2-15.6-9.2-22.8-14.4c-114.6-72.3-184.9-174.5-209.7-307.7
				c-44.3-239.6,106.4-470.8,342.8-527.8c83.7-19.6,165.1-17.6,246.8,8.2c67.1,20.8,131.2,48.5,195.1,78.5
				c44.3,20.8,86.6,43.3,129.2,67.1c5.2,3.2,9.2,5.2,15.6,9.2c0,4.2,1,7.2,1,11.4c0,54.7-3.2,110.4-7.2,165.1
				c-7.2,80.5-19.6,161.2-36.1,239.6c-50.7,233.4-140.4,449.3-270.6,649.6c-36.1,55.7-75.3,109.4-116.6,161.2
				C1666.1,2054.9,1663.9,2058.8,1657.7,2062L1657.7,2062z"/>
		</g>
		<g id="Vector_3_" transform="translate(117.423 -173.453)">
			<path id="path3_fill" class="st3" d="M1132.2,2511.2c-15.6-6.2-62.9-35.2-113.6-69.1C905.9,2366.9,801.7,2280,706.7,2183
				c-94.8-97.3-179.5-203.5-252-318.1c-68.1-106.4-124.8-217.8-170.3-335.7c-1-3.2-2-5.2-3.2-10.4c5.2,3.2,7.2,4.2,10.4,6.2
				c36.1,28,74.3,51.7,115.6,69.1c52.7,22.8,107.4,38.4,165.1,43.3c116.6,11.4,226-12.4,329.5-70.3c53.7-30,111.6-49.5,172.5-57.9
				c215.9-26.7,430.7,101.2,497.8,324.3c34.2,114.6,23.8,226-29,334.7c-7.2,14.4-13.4,28-20.8,41.3c-4.2,8.2-9.2,16.6-16.6,22.8
				c-109.2,103.5-229,194.3-358.9,270.8C1141.6,2506.1,1136.4,2509.3,1132.2,2511.2L1132.2,2511.2z"/>
		</g>
	</g>
</g>
</svg>
